<?xml version="1.0" encoding="UTF-8"?>
<svg viewBox="0 0 48 48" xmlns="http://www.w3.org/2000/svg" xmlns:xlink="http://www.w3.org/1999/xlink">
 <defs>
  <filter id="u">
   <feGaussianBlur stdDeviation=".57309"/>
  </filter>
  <filter id="e"/>
  <filter id="t" x="-.06828" y="-.78396" width="1.1366" height="2.5679"/>
  <filter id="s" x="-.0206" y="-.78396" width="1.0412" height="2.5679"/>
  <filter id="r" x="-.05253" y="-.13713" width="1.1051" height="1.2742"/>
  <linearGradient id="b">
   <stop stop-color="#f5e0a1" offset="0"/>
   <stop stop-color="#21150f" offset="1"/>
  </linearGradient>
  <linearGradient id="n" x1="37.233" x2="5.699" y1="38.121" y2="8.4203" gradientUnits="userSpaceOnUse">
   <stop offset="0"/>
   <stop stop-opacity="0" offset="1"/>
  </linearGradient>
  <linearGradient id="l" x1="26.668" x2="35.948" y1="20.673" y2="29.171" gradientUnits="userSpaceOnUse">
   <stop stop-color="#f1f2f3" offset="0"/>
   <stop stop-color="#aab7d2" offset="1"/>
  </linearGradient>
  <linearGradient id="q" x1="21.763" x2="33.312" y1="12.898" y2="45.946" gradientUnits="userSpaceOnUse" xlink:href="#b"/>
  <linearGradient id="p" x1="21.485" x2="-28.003" y1="17.478" y2="-21.538" gradientUnits="userSpaceOnUse" xlink:href="#b" spreadMethod="reflect"/>
  <linearGradient id="o" x1="30.287" x2="18.564" y1="25.256" y2="8.6684" gradientUnits="userSpaceOnUse" xlink:href="#b"/>
  <linearGradient id="m" x1="45.224" x2=".68918" y1="34.836" y2="-4.8218" gradientUnits="userSpaceOnUse" xlink:href="#b"/>
  <pattern id="c" width="11.973" height="11.348" patternTransform="matrix(.081266 0 0 .096757 -26.236 -7.1115)" patternUnits="userSpaceOnUse">
   <path transform="translate(34.362 20.486)" d="m-22.625-10a.625,.625 0 1,1 -1.25,0 .625,.625 0 1,1 1.25,0z" fill="#555753" fill-opacity=".78431" stroke="#555753" stroke-linecap="round" stroke-linejoin="round" stroke-opacity=".78824" stroke-width=".473"/>
   <path transform="translate(24.112 20.236)" d="m-22.625-10a.625,.625 0 1,1 -1.25,0 .625,.625 0 1,1 1.25,0z" fill="#555753" fill-opacity=".78431" stroke="#555753" stroke-linecap="round" stroke-linejoin="round" stroke-opacity=".78824" stroke-width=".473"/>
   <path transform="translate(34.112 12.986)" d="m-22.625-10a.625,.625 0 1,1 -1.25,0 .625,.625 0 1,1 1.25,0z" fill="#555753" fill-opacity=".78431" stroke="#555753" stroke-linecap="round" stroke-linejoin="round" stroke-opacity=".78824" stroke-width=".473"/>
   <path transform="translate(24.612 10.986)" d="m-22.625-10a.625,.625 0 1,1 -1.25,0 .625,.625 0 1,1 1.25,0z" fill="#555753" fill-opacity=".78431" stroke="#555753" stroke-linecap="round" stroke-linejoin="round" stroke-opacity=".78824" stroke-width=".473"/>
   <path transform="translate(30.112 10.862)" d="m-22.625-10a.625,.625 0 1,1 -1.25,0 .625,.625 0 1,1 1.25,0z" fill="#555753" fill-opacity=".78431" stroke="#555753" stroke-linecap="round" stroke-linejoin="round" stroke-opacity=".78824" stroke-width=".473"/>
   <path transform="translate(34.112 17.612)" d="m-22.625-10a.625,.625 0 1,1 -1.25,0 .625,.625 0 1,1 1.25,0z" fill="#555753" fill-opacity=".78431" stroke="#555753" stroke-linecap="round" stroke-linejoin="round" stroke-opacity=".78824" stroke-width=".473"/>
   <path transform="translate(29.112 18.862)" d="m-22.625-10a.625,.625 0 1,1 -1.25,0 .625,.625 0 1,1 1.25,0z" fill="#555753" fill-opacity=".78431" stroke="#555753" stroke-linecap="round" stroke-linejoin="round" stroke-opacity=".78824" stroke-width=".473"/>
   <path transform="translate(25.112 15.362)" d="m-22.625-10a.625,.625 0 1,1 -1.25,0 .625,.625 0 1,1 1.25,0z" fill="#555753" fill-opacity=".78431" stroke="#555753" stroke-linecap="round" stroke-linejoin="round" stroke-opacity=".78824" stroke-width=".473"/>
   <path transform="translate(24.862 18.862)" d="m-22.625-10a.625,.625 0 1,1 -1.25,0 .625,.625 0 1,1 1.25,0z" fill="#555753" fill-opacity=".78431" stroke="#555753" stroke-linecap="round" stroke-linejoin="round" stroke-opacity=".78824" stroke-width=".473"/>
   <path transform="translate(26.612 10.862)" d="m-22.625-10a.625,.625 0 1,1 -1.25,0 .625,.625 0 1,1 1.25,0z" fill="#555753" fill-opacity=".78431" stroke="#555753" stroke-linecap="round" stroke-linejoin="round" stroke-opacity=".78824" stroke-width=".473"/>
   <path transform="translate(33.612 11.112)" d="m-22.625-10a.625,.625 0 1,1 -1.25,0 .625,.625 0 1,1 1.25,0z" fill="#555753" fill-opacity=".78431" stroke="#555753" stroke-linecap="round" stroke-linejoin="round" stroke-opacity=".78824" stroke-width=".473"/>
   <path transform="translate(33.862 15.112)" d="m-22.625-10a.625,.625 0 1,1 -1.25,0 .625,.625 0 1,1 1.25,0z" fill="#555753" fill-opacity=".78431" stroke="#555753" stroke-linecap="round" stroke-linejoin="round" stroke-opacity=".78824" stroke-width=".473"/>
   <path transform="translate(33.362 19.362)" d="m-22.625-10a.625,.625 0 1,1 -1.25,0 .625,.625 0 1,1 1.25,0z" fill="#555753" fill-opacity=".78431" stroke="#555753" stroke-linecap="round" stroke-linejoin="round" stroke-opacity=".78824" stroke-width=".473"/>
   <path transform="translate(30.112 12.862)" d="m-22.625-10a.625,.625 0 1,1 -1.25,0 .625,.625 0 1,1 1.25,0z" fill="#555753" fill-opacity=".78431" stroke="#555753" stroke-linecap="round" stroke-linejoin="round" stroke-opacity=".78824" stroke-width=".473"/>
   <path transform="translate(25.862 13.112)" d="m-22.625-10a.625,.625 0 1,1 -1.25,0 .625,.625 0 1,1 1.25,0z" fill="#555753" fill-opacity=".78431" stroke="#555753" stroke-linecap="round" stroke-linejoin="round" stroke-opacity=".78824" stroke-width=".473"/>
   <path transform="translate(31.362 19.862)" d="m-22.625-10a.625,.625 0 1,1 -1.25,0 .625,.625 0 1,1 1.25,0z" fill="#555753" fill-opacity=".78431" stroke="#555753" stroke-linecap="round" stroke-linejoin="round" stroke-opacity=".78824" stroke-width=".473"/>
   <path transform="translate(28.362 17.362)" d="m-22.625-10a.625,.625 0 1,1 -1.25,0 .625,.625 0 1,1 1.25,0z" fill="#555753" fill-opacity=".78431" stroke="#555753" stroke-linecap="round" stroke-linejoin="round" stroke-opacity=".78824" stroke-width=".473"/>
   <path transform="translate(27.612 20.112)" d="m-22.625-10a.625,.625 0 1,1 -1.25,0 .625,.625 0 1,1 1.25,0z" fill="#555753" fill-opacity=".78431" stroke="#555753" stroke-linecap="round" stroke-linejoin="round" stroke-opacity=".78824" stroke-width=".473"/>
   <path transform="translate(32.362 16.862)" d="m-22.625-10a.625,.625 0 1,1 -1.25,0 .625,.625 0 1,1 1.25,0z" fill="#555753" fill-opacity=".78431" stroke="#555753" stroke-linecap="round" stroke-linejoin="round" stroke-opacity=".78824" stroke-width=".473"/>
   <path transform="translate(31.862 12.362)" d="m-22.625-10a.625,.625 0 1,1 -1.25,0 .625,.625 0 1,1 1.25,0z" fill="#555753" fill-opacity=".78431" stroke="#555753" stroke-linecap="round" stroke-linejoin="round" stroke-opacity=".78824" stroke-width=".473"/>
   <path transform="translate(28.362 12.112)" d="m-22.625-10a.625,.625 0 1,1 -1.25,0 .625,.625 0 1,1 1.25,0z" fill="#555753" fill-opacity=".78431" stroke="#555753" stroke-linecap="round" stroke-linejoin="round" stroke-opacity=".78824" stroke-width=".473"/>
   <path transform="translate(27.362 15.612)" d="m-22.625-10a.625,.625 0 1,1 -1.25,0 .625,.625 0 1,1 1.25,0z" fill="#555753" fill-opacity=".78431" stroke="#555753" stroke-linecap="round" stroke-linejoin="round" stroke-opacity=".78824" stroke-width=".473"/>
   <path transform="translate(30.112 17.612)" d="m-22.625-10a.625,.625 0 1,1 -1.25,0 .625,.625 0 1,1 1.25,0z" fill="#555753" fill-opacity=".78431" stroke="#555753" stroke-linecap="round" stroke-linejoin="round" stroke-opacity=".78824" stroke-width=".473"/>
   <path transform="translate(31.862 15.362)" d="m-22.625-10a.625,.625 0 1,1 -1.25,0 .625,.625 0 1,1 1.25,0z" fill="#555753" fill-opacity=".78431" stroke="#555753" stroke-linecap="round" stroke-linejoin="round" stroke-opacity=".78824" stroke-width=".473"/>
   <path transform="translate(28.862 14.112)" d="m-22.625-10a.625,.625 0 1,1 -1.25,0 .625,.625 0 1,1 1.25,0z" fill="#555753" fill-opacity=".78431" stroke="#555753" stroke-linecap="round" stroke-linejoin="round" stroke-opacity=".78824" stroke-width=".473"/>
   <path transform="translate(29.112 15.612)" d="m-22.625-10a.625,.625 0 1,1 -1.25,0 .625,.625 0 1,1 1.25,0z" fill="#555753" fill-opacity=".78431" stroke="#555753" stroke-linecap="round" stroke-linejoin="round" stroke-opacity=".78824" stroke-width=".473"/>
   <path transform="translate(32.486 13.736)" d="m-22.625-10a.625,.625 0 1,1 -1.25,0 .625,.625 0 1,1 1.25,0z" fill="#555753" fill-opacity=".78431" stroke="#555753" stroke-linecap="round" stroke-linejoin="round" stroke-opacity=".78824" stroke-width=".473"/>
   <path transform="translate(26.236 17.362)" d="m-22.625-10a.625,.625 0 1,1 -1.25,0 .625,.625 0 1,1 1.25,0z" fill="#555753" fill-opacity=".78431" stroke="#555753" stroke-linecap="round" stroke-linejoin="round" stroke-opacity=".78824" stroke-width=".473"/>
  </pattern>
  <pattern id="i" width=".973" height="1.098" patternTransform="translate(-26.236 -7.1115)" patternUnits="userSpaceOnUse">
   <path d="m0,0h.973v1.098h-.973z" fill="url(#h)"/>
  </pattern>
  <pattern id="j" xlink:href="#d" patternTransform="matrix(.080687 0 0 .098796 -27.815 -7.7818)"/>
  <pattern id="k" xlink:href="#d" patternTransform="matrix(.081266 0 0 .096757 -28.236 -7.1115)"/>
  <pattern id="a" xlink:href="#c" patternTransform="matrix(.080687 0 0 .098796 -27.815 -7.7818)"/>
  <pattern id="d" xlink:href="#c" patternTransform="matrix(.081266 0 0 .096757 -26.236 -7.1115)"/>
  <pattern id="h" xlink:href="#c" patternTransform="matrix(.081266 0 0 .096757 -2.1362e-7 -2.1362e-7)"/>
  <radialGradient id="f" cx="55.108" cy="33.524" r="13.889" gradientTransform="matrix(1 0 0 .5036 0 14.613)" gradientUnits="userSpaceOnUse">
   <stop stop-opacity=".46053" offset="0"/>
   <stop stop-opacity="0" offset="1"/>
  </radialGradient>
  <radialGradient id="g" cx="27.577" cy="24.665" r="19.192" gradientTransform="matrix(.88947 0 0 1 3.0482 0)" gradientUnits="userSpaceOnUse">
   <stop offset="0"/>
   <stop offset=".66265"/>
   <stop stop-opacity="0" offset="1"/>
  </radialGradient>
 </defs>
 <path transform="matrix(1.2456 0 0 1.1633 -8.6672 -4.5749)" d="m46.669 24.665a19.092 19.092 0 1 1 -38.184 0 19.092 19.092 0 1 1 38.184 0z" fill="url(#g)" filter="url(#u)"/>
 <path transform="matrix(1.1219 0 0 1.1118 -5.6707 -3.1285)" d="m44.976 23.506a18.308 18.81 0 1 1 -36.616 0 18.308 18.81 0 1 1 36.616 0z" fill="url(#q)" stroke="url(#n)" stroke-width=".44972"/>
 <path transform="matrix(1.0618 0 0 1.0434 -4.3483 -1.9872)" d="m44.976 23.506a18.308 18.81 0 1 1 -36.616 0 18.308 18.81 0 1 1 36.616 0z" fill="url(#p)" stroke="url(#o)" stroke-width=".44937"/>
 <path transform="matrix(.78998 0 0 .76532 3.1097 4.5513)" d="m44.976 23.506a18.308 18.81 0 1 1 -36.616 0 18.308 18.81 0 1 1 36.616 0z" fill="url(#l)" stroke="url(#m)" stroke-width=".20192"/>
 <path transform="matrix(.64705 -.90412 .90409 .64707 -31.303 62.603)" d="m71.771 29.438a13.789 6.8943 0 1 1 -27.577 0 13.789 6.8943 0 1 1 27.577 0z" fill="url(#f)"/>
 <path d="m22.342 10.164-3.9307 16.51c-0.04546 0.9172-0.23737 1.4413 0.78615 2.3585" fill="none" filter="url(#e)" stroke="#000" stroke-linecap="round" stroke-linejoin="round" stroke-opacity=".78824" stroke-width=".3"/>
 <path d="m21.835 30.604h-11.118" fill="none" filter="url(#s)" stroke="#000" stroke-linecap="round" stroke-linejoin="round" stroke-opacity=".78824" stroke-width=".3"/>
 <path d="m17.822 13.505h-3.1446" fill="none" filter="url(#t)" stroke="#000" stroke-linecap="round" stroke-linejoin="round" stroke-opacity=".78824" stroke-width=".3"/>
 <path d="m17.625 14.094-2.7515 13.535s-0.68788 1.2486-1.9654 1.7958c-1.3588 0.58207-1.5723 0.39309-1.5723 0.39309" fill="none" filter="url(#e)" stroke="#fff" stroke-linecap="round" stroke-linejoin="round" stroke-width=".5"/>
 <path d="m14.873 12.719s2.9765-0.58963 4.7169-1.1793 2.2447-1.1793 2.2447-1.1793" fill="none" filter="url(#r)" stroke="#fff" stroke-linecap="round" stroke-linejoin="round" stroke-width=".5"/>
 <path d="m31.5,8.8195v.66765" fill="#555753" fill-opacity=".78431" fill-rule="evenodd" stroke="#555753" stroke-linecap="round" stroke-linejoin="round" stroke-opacity=".78431" stroke-width=".2"/>
 <path transform="matrix(.12495 0 0 .13539 23.55 5.6526)" d="m67.5 41.5-3.5595-2.3525-3.1387 2.5717 1.1374-4.1122-3.4158-2.1904 4.2624-0.18903 1.0276-3.9255 1.4969 3.9954 4.0509-0.2357-3.3373 2.6583 1.476 3.7798z" fill="none" stroke="#000" stroke-linecap="round" stroke-linejoin="round" stroke-opacity=".63111" stroke-width="1.5377"/>
 <path transform="matrix(.12495 0 0 .13539 23.333 5.536)" d="m67.5 41.5-3.5595-2.3525-3.1387 2.5717 1.1374-4.1122-3.4158-2.1904 4.2624-0.18903 1.0276-3.9255 1.4969 3.9954 4.0509-0.2357-3.3373 2.6583 1.476 3.7798z" fill="#f5e0a1" stroke="#ffede2" stroke-linecap="round" stroke-linejoin="round" stroke-width=".76886"/>
 <path transform="matrix(.12495 0 0 .13539 24.913 6.4089)" d="m67.5 41.5-3.5595-2.3525-3.1387 2.5717 1.1374-4.1122-3.4158-2.1904 4.2624-0.18903 1.0276-3.9255 1.4969 3.9954 4.0509-0.2357-3.3373 2.6583 1.476 3.7798z" fill="none" stroke="#000" stroke-linecap="round" stroke-linejoin="round" stroke-opacity=".63111" stroke-width="1.5377"/>
 <path transform="matrix(.12495 0 0 .13539 24.696 6.2923)" d="m67.5 41.5-3.5595-2.3525-3.1387 2.5717 1.1374-4.1122-3.4158-2.1904 4.2624-0.18903 1.0276-3.9255 1.4969 3.9954 4.0509-0.2357-3.3373 2.6583 1.476 3.7798z" fill="#f5e0a1" stroke="#ffede2" stroke-linecap="round" stroke-linejoin="round" stroke-width=".76886"/>
 <path transform="matrix(.12495 0 0 .13539 26.163 7.4089)" d="m67.5 41.5-3.5595-2.3525-3.1387 2.5717 1.1374-4.1122-3.4158-2.1904 4.2624-0.18903 1.0276-3.9255 1.4969 3.9954 4.0509-0.2357-3.3373 2.6583 1.476 3.7798z" fill="none" stroke="#000" stroke-linecap="round" stroke-linejoin="round" stroke-opacity=".63111" stroke-width="1.5377"/>
 <path transform="matrix(.12495 0 0 .13539 25.946 7.2923)" d="m67.5 41.5-3.5595-2.3525-3.1387 2.5717 1.1374-4.1122-3.4158-2.1904 4.2624-0.18903 1.0276-3.9255 1.4969 3.9954 4.0509-0.2357-3.3373 2.6583 1.476 3.7798z" fill="#f5e0a1" stroke="#ffede2" stroke-linecap="round" stroke-linejoin="round" stroke-width=".76886"/>
 <path transform="matrix(.12495 0 0 .13539 27.538 8.3464)" d="m67.5 41.5-3.5595-2.3525-3.1387 2.5717 1.1374-4.1122-3.4158-2.1904 4.2624-0.18903 1.0276-3.9255 1.4969 3.9954 4.0509-0.2357-3.3373 2.6583 1.476 3.7798z" fill="none" stroke="#000" stroke-linecap="round" stroke-linejoin="round" stroke-opacity=".63111" stroke-width="1.5377"/>
 <path transform="matrix(.12495 0 0 .13539 27.321 8.2298)" d="m67.5 41.5-3.5595-2.3525-3.1387 2.5717 1.1374-4.1122-3.4158-2.1904 4.2624-0.18903 1.0276-3.9255 1.4969 3.9954 4.0509-0.2357-3.3373 2.6583 1.476 3.7798z" fill="#f5e0a1" stroke="#ffede2" stroke-linecap="round" stroke-linejoin="round" stroke-width=".76886"/>
 <path transform="matrix(.12495 0 0 .13539 28.85 9.9089)" d="m67.5 41.5-3.5595-2.3525-3.1387 2.5717 1.1374-4.1122-3.4158-2.1904 4.2624-0.18903 1.0276-3.9255 1.4969 3.9954 4.0509-0.2357-3.3373 2.6583 1.476 3.7798z" fill="none" stroke="#000" stroke-linecap="round" stroke-linejoin="round" stroke-opacity=".63111" stroke-width="1.5377"/>
 <path transform="matrix(.12495 0 0 .13539 28.634 9.7923)" d="m67.5 41.5-3.5595-2.3525-3.1387 2.5717 1.1374-4.1122-3.4158-2.1904 4.2624-0.18903 1.0276-3.9255 1.4969 3.9954 4.0509-0.2357-3.3373 2.6583 1.476 3.7798z" fill="#f5e0a1" stroke="#ffede2" stroke-linecap="round" stroke-linejoin="round" stroke-width=".76886"/>
 <path transform="matrix(.12495 0 0 .13539 30.069 11.784)" d="m67.5 41.5-3.5595-2.3525-3.1387 2.5717 1.1374-4.1122-3.4158-2.1904 4.2624-0.18903 1.0276-3.9255 1.4969 3.9954 4.0509-0.2357-3.3373 2.6583 1.476 3.7798z" fill="none" stroke="#000" stroke-linecap="round" stroke-linejoin="round" stroke-opacity=".63111" stroke-width="1.5377"/>
 <path transform="matrix(.12495 0 0 .13539 29.852 11.667)" d="m67.5 41.5-3.5595-2.3525-3.1387 2.5717 1.1374-4.1122-3.4158-2.1904 4.2624-0.18903 1.0276-3.9255 1.4969 3.9954 4.0509-0.2357-3.3373 2.6583 1.476 3.7798z" fill="#f5e0a1" stroke="#ffede2" stroke-linecap="round" stroke-linejoin="round" stroke-width=".76886"/>
 <path transform="matrix(.12495 0 0 .13539 30.225 25.44)" d="m67.5 41.5-3.5595-2.3525-3.1387 2.5717 1.1374-4.1122-3.4158-2.1904 4.2624-0.18903 1.0276-3.9255 1.4969 3.9954 4.0509-0.2357-3.3373 2.6583 1.476 3.7798z" fill="#9d8e66" stroke="#000" stroke-linecap="round" stroke-linejoin="round" stroke-opacity=".63111" stroke-width="1.5377"/>
 <path transform="matrix(.12495 0 0 .13539 30.009 25.324)" d="m67.5 41.5-3.5595-2.3525-3.1387 2.5717 1.1374-4.1122-3.4158-2.1904 4.2624-0.18903 1.0276-3.9255 1.4969 3.9954 4.0509-0.2357-3.3373 2.6583 1.476 3.7798z" fill="#9d8e66" stroke="#d5ba7d" stroke-linecap="round" stroke-linejoin="round" stroke-width=".76886"/>
 <path d="m31.322 8.8195v0.66765" fill="none" stroke="#fff" stroke-linecap="round" stroke-linejoin="round" stroke-opacity=".78431" stroke-width=".2"/>
 <path transform="matrix(.12495 0 0 .13539 28.913 27.079)" d="m67.5 41.5-3.5595-2.3525-3.1387 2.5717 1.1374-4.1122-3.4158-2.1904 4.2624-0.18903 1.0276-3.9255 1.4969 3.9954 4.0509-0.2357-3.3373 2.6583 1.476 3.7798z" fill="#9d8e66" stroke="#000" stroke-linecap="round" stroke-linejoin="round" stroke-opacity=".63111" stroke-width="1.5377"/>
 <path transform="matrix(.12495 0 0 .13539 28.697 26.963)" d="m67.5 41.5-3.5595-2.3525-3.1387 2.5717 1.1374-4.1122-3.4158-2.1904 4.2624-0.18903 1.0276-3.9255 1.4969 3.9954 4.0509-0.2357-3.3373 2.6583 1.476 3.7798z" fill="#9d8e66" stroke="#d5ba7d" stroke-linecap="round" stroke-linejoin="round" stroke-width=".76886"/>
 <path transform="matrix(.12495 0 0 .13539 27.694 28.565)" d="m67.5 41.5-3.5595-2.3525-3.1387 2.5717 1.1374-4.1122-3.4158-2.1904 4.2624-0.18903 1.0276-3.9255 1.4969 3.9954 4.0509-0.2357-3.3373 2.6583 1.476 3.7798z" fill="#9d8e66" stroke="#000" stroke-linecap="round" stroke-linejoin="round" stroke-opacity=".63111" stroke-width="1.5377"/>
 <path transform="matrix(.12495 0 0 .13539 27.477 28.449)" d="m67.5 41.5-3.5595-2.3525-3.1387 2.5717 1.1374-4.1122-3.4158-2.1904 4.2624-0.18903 1.0276-3.9255 1.4969 3.9954 4.0509-0.2357-3.3373 2.6583 1.476 3.7798z" fill="#9d8e66" stroke="#d5ba7d" stroke-linecap="round" stroke-linejoin="round" stroke-width=".76886"/>
 <path transform="matrix(.12495 0 0 .13539 26.35 29.784)" d="m67.5 41.5-3.5595-2.3525-3.1387 2.5717 1.1374-4.1122-3.4158-2.1904 4.2624-0.18903 1.0276-3.9255 1.4969 3.9954 4.0509-0.2357-3.3373 2.6583 1.476 3.7798z" fill="#9d8e66" stroke="#000" stroke-linecap="round" stroke-linejoin="round" stroke-opacity=".63111" stroke-width="1.5377"/>
 <path transform="matrix(.12495 0 0 .13539 26.134 29.667)" d="m67.5 41.5-3.5595-2.3525-3.1387 2.5717 1.1374-4.1122-3.4158-2.1904 4.2624-0.18903 1.0276-3.9255 1.4969 3.9954 4.0509-0.2357-3.3373 2.6583 1.476 3.7798z" fill="#9d8e66" stroke="#d5ba7d" stroke-linecap="round" stroke-linejoin="round" stroke-width=".76886"/>
 <path transform="matrix(.12495 0 0 .13539 25.038 30.784)" d="m67.5 41.5-3.5595-2.3525-3.1387 2.5717 1.1374-4.1122-3.4158-2.1904 4.2624-0.18903 1.0276-3.9255 1.4969 3.9954 4.0509-0.2357-3.3373 2.6583 1.476 3.7798z" fill="#9d8e66" stroke="#000" stroke-linecap="round" stroke-linejoin="round" stroke-opacity=".63111" stroke-width="1.5377"/>
 <path transform="matrix(.12495 0 0 .13539 24.821 30.667)" d="m67.5 41.5-3.5595-2.3525-3.1387 2.5717 1.1374-4.1122-3.4158-2.1904 4.2624-0.18903 1.0276-3.9255 1.4969 3.9954 4.0509-0.2357-3.3373 2.6583 1.476 3.7798z" fill="#9d8e66" stroke="#d5ba7d" stroke-linecap="round" stroke-linejoin="round" stroke-width=".76886"/>
 <path transform="matrix(.12495 0 0 .13539 23.694 31.69)" d="m67.5 41.5-3.5595-2.3525-3.1387 2.5717 1.1374-4.1122-3.4158-2.1904 4.2624-0.18903 1.0276-3.9255 1.4969 3.9954 4.0509-0.2357-3.3373 2.6583 1.476 3.7798z" fill="#9d8e66" stroke="#000" stroke-linecap="round" stroke-linejoin="round" stroke-opacity=".63111" stroke-width="1.5377"/>
 <path transform="matrix(.12495 0 0 .13539 23.477 31.574)" d="m67.5 41.5-3.5595-2.3525-3.1387 2.5717 1.1374-4.1122-3.4158-2.1904 4.2624-0.18903 1.0276-3.9255 1.4969 3.9954 4.0509-0.2357-3.3373 2.6583 1.476 3.7798z" fill="#9d8e66" stroke="#d5ba7d" stroke-linecap="round" stroke-linejoin="round" stroke-width=".76886"/>
 <path d="m31.5 11.444v8.5114" fill="#555753" fill-opacity=".78431" fill-rule="evenodd" stroke="#555753" stroke-linecap="round" stroke-linejoin="round" stroke-opacity=".78431" stroke-width=".2"/>
 <path d="m31.322 11.444v8.5114" fill="none" stroke="#fff" stroke-linecap="round" stroke-linejoin="round" stroke-opacity=".78431" stroke-width=".2"/>
 <path d="m31.5 37.369v0.84442" fill="#555753" fill-opacity=".78431" fill-rule="evenodd" stroke="#555753" stroke-linecap="round" stroke-linejoin="round" stroke-opacity=".78431" stroke-width=".2"/>
 <path d="m31.322 37.369v0.84442" fill="none" stroke="#fff" stroke-linecap="round" stroke-linejoin="round" stroke-opacity=".78431" stroke-width=".2"/>
 <path d="m31.5 28.685v6.5676" fill="#555753" fill-opacity=".78431" fill-rule="evenodd" stroke="#555753" stroke-linecap="round" stroke-linejoin="round" stroke-opacity=".78431" stroke-width=".2"/>
 <path d="m31.322 28.685v6.5676" fill="none" stroke="#fff" stroke-linecap="round" stroke-linejoin="round" stroke-opacity=".78431" stroke-width=".2"/>
 <path d="m32.776 9.5256v0.66765" fill="#555753" fill-opacity=".78431" fill-rule="evenodd" stroke="#555753" stroke-linecap="round" stroke-linejoin="round" stroke-opacity=".78431" stroke-width=".2"/>
 <path d="m32.599 9.5256v0.66765" fill="none" stroke="#fff" stroke-linecap="round" stroke-linejoin="round" stroke-opacity=".78431" stroke-width=".2"/>
 <path d="m34.089 13.088v1.2302" fill="#555753" fill-opacity=".78431" fill-rule="evenodd" stroke="#555753" stroke-linecap="round" stroke-linejoin="round" stroke-opacity=".78431" stroke-width=".2"/>
 <path d="m33.911 13.088v1.2302" fill="none" stroke="#fff" stroke-linecap="round" stroke-linejoin="round" stroke-opacity=".78431" stroke-width=".2"/>
 <path d="m35.433 11.307v0.9489" fill="#555753" fill-opacity=".78431" fill-rule="evenodd" stroke="#555753" stroke-linecap="round" stroke-linejoin="round" stroke-opacity=".78431" stroke-width=".2"/>
 <path d="m35.255 11.307v0.9489" fill="none" stroke="#fff" stroke-linecap="round" stroke-linejoin="round" stroke-opacity=".78431" stroke-width=".2"/>
 <path d="m36.729 12.51v1.1364" fill="#555753" fill-opacity=".78431" fill-rule="evenodd" stroke="#555753" stroke-linecap="round" stroke-linejoin="round" stroke-opacity=".78431" stroke-width=".2"/>
 <path d="m36.552 12.51v1.1364" fill="none" stroke="#fff" stroke-linecap="round" stroke-linejoin="round" stroke-opacity=".78431" stroke-width=".2"/>
 <path d="m38.073 13.979v1.3864" fill="#555753" fill-opacity=".78431" fill-rule="evenodd" stroke="#555753" stroke-linecap="round" stroke-linejoin="round" stroke-opacity=".78431" stroke-width=".2"/>
 <path d="m37.896 13.979v1.3864" fill="none" stroke="#fff" stroke-linecap="round" stroke-linejoin="round" stroke-opacity=".78431" stroke-width=".2"/>
 <path d="m32.776 12.213v4.1052" fill="#555753" fill-opacity=".78431" fill-rule="evenodd" stroke="#555753" stroke-linecap="round" stroke-linejoin="round" stroke-opacity=".78431" stroke-width=".2"/>
 <path d="m32.599 12.213v4.1052" fill="none" stroke="#fff" stroke-linecap="round" stroke-linejoin="round" stroke-opacity=".78431" stroke-width=".2"/>
 <path d="m32.901 31.307v3.2614" fill="#555753" fill-opacity=".78431" fill-rule="evenodd" stroke="#555753" stroke-linecap="round" stroke-linejoin="round" stroke-opacity=".78431" stroke-width=".2"/>
 <path d="m32.724 31.307v3.2614" fill="none" stroke="#fff" stroke-linecap="round" stroke-linejoin="round" stroke-opacity=".78431" stroke-width=".2"/>
 <path d="m32.901 36.588v0.98014" fill="#555753" fill-opacity=".78431" fill-rule="evenodd" stroke="#555753" stroke-linecap="round" stroke-linejoin="round" stroke-opacity=".78431" stroke-width=".2"/>
 <path d="m32.724 36.588v0.98014" fill="none" stroke="#fff" stroke-linecap="round" stroke-linejoin="round" stroke-opacity=".78431" stroke-width=".2"/>
 <path d="m34.089 10.213v0.91765" fill="#555753" fill-opacity=".78431" fill-rule="evenodd" stroke="#555753" stroke-linecap="round" stroke-linejoin="round" stroke-opacity=".78431" stroke-width=".2"/>
 <path d="m33.911 10.213v0.91765" fill="none" stroke="#fff" stroke-linecap="round" stroke-linejoin="round" stroke-opacity=".78431" stroke-width=".2"/>
 <path d="m34.214 27.619v1.5739" fill="#555753" fill-opacity=".78431" fill-rule="evenodd" stroke="#555753" stroke-linecap="round" stroke-linejoin="round" stroke-opacity=".78431" stroke-width=".2"/>
 <path d="m34.036 27.619v1.5739" fill="none" stroke="#fff" stroke-linecap="round" stroke-linejoin="round" stroke-opacity=".78431" stroke-width=".2"/>
 <path d="m34.214 29.744v3.8239" fill="#555753" fill-opacity=".78431" fill-rule="evenodd" stroke="#555753" stroke-linecap="round" stroke-linejoin="round" stroke-opacity=".78431" stroke-width=".2"/>
 <path d="m34.036 29.744v3.8239" fill="none" stroke="#fff" stroke-linecap="round" stroke-linejoin="round" stroke-opacity=".78431" stroke-width=".2"/>
 <path d="m34.214 35.557v1.3239" fill="#555753" fill-opacity=".78431" fill-rule="evenodd" stroke="#555753" stroke-linecap="round" stroke-linejoin="round" stroke-opacity=".78431" stroke-width=".2"/>
 <path d="m34.036 35.557v1.3239" fill="none" stroke="#fff" stroke-linecap="round" stroke-linejoin="round" stroke-opacity=".78431" stroke-width=".2"/>
 <path d="m34.089 21.244v1.1052" fill="#555753" fill-opacity=".78431" fill-rule="evenodd" stroke="#555753" stroke-linecap="round" stroke-linejoin="round" stroke-opacity=".78431" stroke-width=".2"/>
 <path d="m33.911 21.244v1.1052" fill="none" stroke="#fff" stroke-linecap="round" stroke-linejoin="round" stroke-opacity=".78431" stroke-width=".2"/>
 <path d="m32.776 21.557v0.6989" fill="#555753" fill-opacity=".78431" fill-rule="evenodd" stroke="#555753" stroke-linecap="round" stroke-linejoin="round" stroke-opacity=".78431" stroke-width=".2"/>
 <path d="m32.599 21.557v0.6989" fill="none" stroke="#fff" stroke-linecap="round" stroke-linejoin="round" stroke-opacity=".78431" stroke-width=".2"/>
 <path d="m35.433 19.401v2.9489" fill="#555753" fill-opacity=".78431" fill-rule="evenodd" stroke="#555753" stroke-linecap="round" stroke-linejoin="round" stroke-opacity=".78431" stroke-width=".2"/>
 <path d="m35.255 19.401v2.9489" fill="none" stroke="#fff" stroke-linecap="round" stroke-linejoin="round" stroke-opacity=".78431" stroke-width=".2"/>
 <path d="m35.495 30.526v1.7926" fill="#555753" fill-opacity=".78431" fill-rule="evenodd" stroke="#555753" stroke-linecap="round" stroke-linejoin="round" stroke-opacity=".78431" stroke-width=".2"/>
 <path d="m35.317 30.526v1.7926" fill="none" stroke="#fff" stroke-linecap="round" stroke-linejoin="round" stroke-opacity=".78431" stroke-width=".2"/>
 <path d="m35.495 34.338v1.2302" fill="#555753" fill-opacity=".78431" fill-rule="evenodd" stroke="#555753" stroke-linecap="round" stroke-linejoin="round" stroke-opacity=".78431" stroke-width=".2"/>
 <path d="m35.317 34.338v1.2302" fill="none" stroke="#fff" stroke-linecap="round" stroke-linejoin="round" stroke-opacity=".78431" stroke-width=".2"/>
 <path d="m35.495 27.588v0.35515" fill="#555753" fill-opacity=".78431" fill-rule="evenodd" stroke="#555753" stroke-linecap="round" stroke-linejoin="round" stroke-opacity=".78431" stroke-width=".2"/>
 <path d="m35.317 27.588v0.35515" fill="none" stroke="#fff" stroke-linecap="round" stroke-linejoin="round" stroke-opacity=".78431" stroke-width=".2"/>
 <path d="m36.729 15.635v1.1989" fill="#555753" fill-opacity=".78431" fill-rule="evenodd" stroke="#555753" stroke-linecap="round" stroke-linejoin="round" stroke-opacity=".78431" stroke-width=".2"/>
 <path d="m36.552 15.635v1.1989" fill="none" stroke="#fff" stroke-linecap="round" stroke-linejoin="round" stroke-opacity=".78431" stroke-width=".2"/>
 <path d="m36.729 17.916v4.3552" fill="#555753" fill-opacity=".78431" fill-rule="evenodd" stroke="#555753" stroke-linecap="round" stroke-linejoin="round" stroke-opacity=".78431" stroke-width=".2"/>
 <path d="m36.552 17.916v4.3552" fill="none" stroke="#fff" stroke-linecap="round" stroke-linejoin="round" stroke-opacity=".78431" stroke-width=".2"/>
 <path d="m36.818 28.567v1.7477" fill="#555753" fill-opacity=".78431" fill-rule="evenodd" stroke="#555753" stroke-linecap="round" stroke-linejoin="round" stroke-opacity=".78431" stroke-width=".2"/>
 <path d="m36.64 28.567v1.7477" fill="none" stroke="#fff" stroke-linecap="round" stroke-linejoin="round" stroke-opacity=".78431" stroke-width=".2"/>
 <path d="m36.818 32.81v1.3941" fill="#555753" fill-opacity=".78431" fill-rule="evenodd" stroke="#555753" stroke-linecap="round" stroke-linejoin="round" stroke-opacity=".78431" stroke-width=".2"/>
 <path d="m36.64 32.81v1.3941" fill="none" stroke="#fff" stroke-linecap="round" stroke-linejoin="round" stroke-opacity=".78431" stroke-width=".2"/>
 <path d="m38.073 17.514v4.7452" fill="#555753" fill-opacity=".78431" fill-rule="evenodd" stroke="#555753" stroke-linecap="round" stroke-linejoin="round" stroke-opacity=".78431" stroke-width=".2"/>
 <path d="m37.896 17.514v4.7452" fill="none" stroke="#fff" stroke-linecap="round" stroke-linejoin="round" stroke-opacity=".78431" stroke-width=".2"/>
 <path d="m38.129 31.132v1.298" fill="#555753" fill-opacity=".78431" fill-rule="evenodd" stroke="#555753" stroke-linecap="round" stroke-linejoin="round" stroke-opacity=".78431" stroke-width=".2"/>
 <path d="m37.951 31.132v1.298" fill="none" stroke="#fff" stroke-linecap="round" stroke-linejoin="round" stroke-opacity=".78431" stroke-width=".2"/>
 <path d="m38.129 27.596v1.6516" fill="#555753" fill-opacity=".78431" fill-rule="evenodd" stroke="#555753" stroke-linecap="round" stroke-linejoin="round" stroke-opacity=".78431" stroke-width=".2"/>
 <path d="m37.951 27.596v1.6516" fill="none" stroke="#fff" stroke-linecap="round" stroke-linejoin="round" stroke-opacity=".78431" stroke-width=".2"/>
 <path d="m24.04927,30.11172h2.23397l.74466-1.02107v-.51054l1.48931-.51054 .24822-.7658 .74466.25527 1.2411-.25527 .24822.7658 1.98575,1.53161v.7658l-.74466.25527-.24822-.7658-.49644.7658 1.48932.76581v-.76581l.74466-.7658 .24822-.25527-1.2411-1.27634-.24822-.7658h-.74466l.24822-.7658 .24822-.76581 .74466.25527v-1.27634h-.74466v-.7658h.74466v-1.27634l-.74466-.76581v-1.02107l-.24822.25527-.24822.7658v-.7658h-.24822v1.02107l-.24822-.25527-.74466.25527-.99288.51054-1.48931,1.02107-.49644.25527-.74466-.25527v.51054l.74466.51054v1.27634l-.49644.25527-1.48932-.25527-.49644-.25527-.74466.51054-1.24109,2.80795h.74466l.24822.7658z" fill="url(#a)" fill-rule="evenodd" stroke="#000" stroke-opacity=".78431" stroke-width=".18113"/>
 <path d="m27.52434,20.22009 .49644.19145-.12411.7658-.62055.51054-.12411.63817-.62055.51054 .62055.12763 1.48931-.25527 .37233-.7658-.24822-.63817-.06206-1.02107-.37233-.3829 .12411-.89344-.55849-.3829-.49644,1.02107 .12411.57435z" fill="url(#a)" fill-rule="evenodd" stroke="#000" stroke-opacity=".78431" stroke-width=".18113"/>
 <path d="m26.59352,19.96482 .49644.7658-.62055.89344-.37233.25527h-.99287l.12411-.51054 .37233-.3829 .24822-.63817 .74466-.3829z" fill="url(#a)" fill-rule="evenodd" stroke="#000" stroke-opacity=".78431" stroke-width=".18113"/>
 <path d="m27.152 18.497s-0.49644 1.3402-0.24822 1.0211 0.62055-0.76581 0.62055-0.76581l-0.37233-0.25527z" fill="url(#j)" fill-rule="evenodd" stroke="#000" stroke-opacity=".78431" stroke-width=".18113"/>
 <path d="m25.10421,31.8986-.49644.63817 .37233.25527 .49644-.51053-.37233-.3829z" fill="url(#a)" fill-rule="evenodd" stroke="#000" stroke-opacity=".78431" stroke-width=".18113"/>
 <path d="m25.60064,32.40913-.49644.51054h.86876l-.37233-.51054z" fill="url(#a)" fill-rule="evenodd" stroke="#000" stroke-opacity=".78431" stroke-width=".18113"/>
 <path d="m26.71763,31.8986-.74466.63817 .37233.3829 .86877-.3829-.49644-.63817z" fill="url(#a)" fill-rule="evenodd" stroke="#000" stroke-opacity=".78431" stroke-width=".18113"/>
 <path d="m28.82749,28.96302-.49644.25527 .37233.51054 .37233-.3829-.24822-.3829z" fill="url(#a)" fill-rule="evenodd" stroke="#000" stroke-opacity=".78431" stroke-width=".18113"/>
 <path d="m30.19269,28.96302-.12411,1.02107h.37233l.49644-.63817v-.51054l-.74466.12763z" fill="url(#a)" fill-rule="evenodd" stroke="#000" stroke-opacity=".78431" stroke-width=".18113"/>
 <path d="m30.52969,28.00407-.26328.1805 .17552.1805 .08776.27075h.35103l.08776-.361-.43879-.27075z" fill="url(#a)" fill-rule="evenodd" stroke="#000" stroke-opacity=".78431" stroke-width=".18113"/>
 <path d="m30.88072,20.6035 .17552,1.17326 .35103-.09025 .08776-.81226 .17552-.27075-.26328-.27075-.52655.27075z" fill="url(#a)" fill-rule="evenodd" stroke="#000" stroke-opacity=".78431" stroke-width=".18113"/>
 <path d="m34.08392,19.83637v.63176l-.17552.1805 .17552.361 .35103-.45125v-.81226l-.35103.09025z" fill="url(#a)" fill-rule="evenodd" stroke="#000" stroke-opacity=".78431" stroke-width=".18113"/>
 <path d="m32.6359,21.09988 .35104.27075 .61431-.45125 .17552-1.35376 .26328-.27075v-.54151l-.43879-.361 .26328-.63176v-.45125l.78983-1.17326 .08776-.99276-.43879-.99276-.87759.72201-.35103,1.26351-.26328.27075 .08776.45125-.52655.63176 .08776,1.08301-.35104.99276v.45125l.52655.27075-.08776.45125 .08776.361z" fill="url(#a)" fill-rule="evenodd" stroke="#000" stroke-opacity=".78431" stroke-width=".18113"/>
 <path d="m34.47883,14.46644 .35103.81226-.17552.99276h.17552v.27075l-.43879.81226 .08776.90251 .08776.361 .52655.361 .78983-.361 .61431-.72201 .26328-.72201-.43879-.45125-.08776-.63176-.26328-.1805v-.90251l-.35104-.63176-.08776-.54151-.26328-.09025-.78983.72201z" fill="url(#a)" fill-rule="evenodd" stroke="#000" stroke-opacity=".78431" stroke-width=".18113"/>
 <path d="m36.234,28.09432-1.22862.1805-.43879.90251 .43879.361h.70207l-.70207.54151 1.0531.361-.17552-.90251h.52655l-.52655-.5415 .87759-.54151 .52655-.1805-1.0531-.1805z" fill="url(#i)" fill-rule="evenodd" stroke="#000" stroke-opacity=".78431" stroke-width=".18113"/>
 <path d="m31.75,21.5h-.25v1l-.25-.25-.75.25-1,.5-1.5,1-.5.25m4.75-3-.25.25-.25.75m1.25,2.75h-.75v-.75m-.25,2.5 .25-.75 .75.25m0,5v-.75l.75-.75 .25-.25m-1,0v.75l-.75.25-.25-.75-.5.75m-4.75-6.5v.5m.75.5v1.25l-.5.25m-1.5-.25-.5-.25-.75.5-1.25,2.75m3.25.75 .75-1m-3.25.25 .25.75" fill="none" stroke="#fff" stroke-width=".2"/>
 <path d="m27.875,18.75-.5,1 .125.5625 .5.1875-.125.75-.625.5-.125.625-.625.5" fill="none" stroke="#fff" stroke-width=".2"/>
 <path d="m25.0625,21.9375 .125-.5 .375-.375 .25-.625 .75-.375" fill="none" stroke="#fff" stroke-width=".2"/>
 <path d="m27.125,18.625c0,0-.5,1.3125-.25,1s.625-.75.625-.75l-.375-.25z" fill="url(#k)" fill-rule="evenodd" stroke="#000" stroke-opacity=".78431" stroke-width=".2"/>
 <path d="m25.4375,32.125-.375-.375-.5.625 .375.25" fill="none" stroke="#fff" stroke-width=".2"/>
 <path d="m25.9375,32.75-.375-.5-.5.5" fill="none" stroke="#fff" stroke-width=".2"/>
 <path d="m27.1875,32.375-.5-.625-.75.625 .375.375" fill="none" stroke="#fff" stroke-width=".2"/>
 <path d="m29.0625,29.25-.25-.375-.5.25 .375.5" fill="none" stroke="#fff" stroke-width=".2"/>
 <path d="m30.9375,28.75-.75.125-.125,1h.375" fill="none" stroke="#fff" stroke-width=".2"/>
 <path d="m30.96885,28.20101-.44194-.26516-.26516.17678 .17678.17678 .08839.26517" fill="none" stroke="#fff" stroke-width=".2"/>
 <path d="m30.88047,20.688 .17678,1.14905 .35355-.08839 .08839-.79549 .17678-.26516-.26517-.26517-.53033.26517z" fill="none" stroke="#fff" stroke-width=".2"/>
 <path d="m34.46019,19.84831-.35355.08839v.61872l-.17678.17678 .17678.35355" fill="none" stroke="#fff" stroke-width=".2"/>
 <path d="m34.32761,14.36823-.88388.70711-.35355,1.23744-.26516.26516 .08839.44194-.53033.61872 .08839,1.06066-.35355.97227v.44194l.53033.26516-.08839.44194 .08839.35355 .35355.26516" fill="none" stroke="#fff" stroke-width=".2"/>
 <path d="m35.56505,14.05887-.26516-.08839-.7955.70711m.17678,1.76777h.17678v.26516l-.44194.79549 .08839.88388 .08839.35355" fill="none" stroke="#fff" stroke-width=".2"/>
 <path d="m35.74182,29.43845-.70711.53033 1.06066.35355m-.17678-.88388h.53033m.35355-1.06066 .53033-.17678-1.06066-.17678-1.23744.17678-.44194.88388 .44194.35355" fill="none" stroke="#fff" stroke-width=".2"/>
 <text transform="scale(.97972,1.0207)" x="30.34407" y="25.92289" fill="#d0d0d0" fill-opacity=".78431" font-family="Utopia" font-size="5.6245" font-style="italic" stroke="#2d2d2d" stroke-opacity=".59111" stroke-width=".3">
  <tspan x="30.34407" y="25.92289" fill="#d0d0d0" fill-opacity=".78431" stroke="#2d2d2d" stroke-opacity=".59111" stroke-width=".3">U</tspan>
 </text>
 <path transform="scale(.97972,1.0207)" d="m27.85113,22.1165-.03937.16311 .33747.0225c.12936.01125.16873.07874.12374.26998l-.67494,2.96974c-.045.19123-.09562.25873-.2306.26998l-.31497.03375-.03375.16311h2.93599l.28685-.98991h-.16873c-.28685.69181-.53995.79305-1.23177.79305-.2756,0-.55683-.01687-.62994-.07312-.08437-.06749-.08999-.15186-.02812-.41621l.28685-1.23177h.73681c.49495,0 .51183.11811.48933.48371h.16873l.25873-1.17552h-.16874c-.14624.38809-.20811.47808-.70306.47808h-.73681l.3206-1.4005c.02812-.13499.06187-.16311.15749-.16311h.68056c.70869,0 .69181.23623.64119.74243h.16873l.21373-.93929h-2.846" fill="#d0d0d0" fill-opacity=".78431" stroke="#2d2d2d" stroke-opacity=".59111" stroke-width=".3"/>
 <path transform="scale(.97972,1.0207)" d="m35.66133,22.03073-.03937.16311 .33185.02812c.12936.01125.16873.08999.12374.2756l-.67494,2.95849c-.045.19686-.10124.25873-.23623.26998l-.30935.03375-.03375.16311h1.54111l.03375-.16311-.33185-.02812c-.13499-.01125-.16873-.08437-.12374-.2756l.30935-1.36675h.33747c.18561,0 .34309.01687.42746.07312 .09562.05625.15749.15186.17998.2756 .03375.20248-.01125.63557.03937,1.05178 .03937.28122.20811.43309.56807.43309h.43871l.05062-.16311c-.24748-.0225-.38247-.08437-.44996-.19686-.05624-.09562-.08437-.30372-.07874-.5962 .00562-.44996-.00563-.83243-.51745-.97304v-.01125c.68619-.09562 1.15865-.48933 1.15865-1.04616 0-.39934-.17436-.90555-1.22614-.90555h-1.51861m.63557,1.86171 .33185-1.45112c.03937-.16311.05624-.21373.48371-.21373 .36559,0 .70306.16311.70306.65244 0,.66932-.43309,1.01241-1.15865,1.01241h-.35997" fill="#d0d0d0" fill-opacity=".78431" stroke="#2d2d2d" stroke-opacity=".59111" stroke-width=".3"/>
 <path transform="scale(.97972,1.0207)" d="m41.30328,22.14322c.61869,0 1.01241.36559 1.01241,1.15865 0,.3206-.03375.78743-.26435,1.38363s-.61307,1.1249-1.34425,1.1249c-.60745,0-1.00679-.39934-1.00679-1.18115 0-.47246.08999-.99554.34872-1.54111 .25873-.53433.65807-.94492 1.25426-.94492m-.0225-.19686c-.89992,0-1.45675.49496-1.78297,1.03491-.30935.52308-.38809,1.05178-.38809,1.423 0,.92804.5287,1.60298 1.64798,1.60298 .99554,0 1.48487-.51183 1.79422-1.06865 .30372-.5512.35434-1.1249.35434-1.34426 0-1.15302-.69744-1.64798-1.62548-1.64798" fill="#d0d0d0" fill-opacity=".78431" stroke="#2d2d2d" stroke-opacity=".59111" stroke-width=".3"/>
 <path transform="scale(.97972,1.0207)" d="m27.50868,21.98034-.03937.16311 .33747.0225c.12936.01125.16873.07874.12374.26998l-.67494,2.96974c-.045.19123-.09562.25873-.2306.26998l-.31497.03375-.03375.16311h2.93599l.28685-.98991h-.16873c-.28685.69181-.53995.79305-1.23177.79305-.2756,0-.55682-.01687-.62994-.07312-.08437-.06749-.08999-.15186-.02812-.41621l.28685-1.23177h.73681c.49495,0 .51183.11811.48933.48371h.16873l.25873-1.17552h-.16873c-.14624.38809-.20811.47808-.70306.47808h-.73681l.3206-1.4005c.02812-.13499.06187-.16311.15749-.16311h.68056c.70869,0 .69181.23623.64119.74243h.16874l.21373-.93929h-2.846" fill="#d0d0d0" fill-opacity=".78431" stroke="#fff" stroke-opacity=".78431" stroke-width=".2"/>
 <path transform="scale(.97972,1.0207)" d="m31.0534,21.89457-.03937.16311 .33185.02812c.12936.01125.16873.08999.12374.2756l-.47246,1.98545c-.26435,1.11927.3431,1.52424 1.31051,1.52424 .76493,0 1.468-.16311 1.77734-1.47362l.47808-2.03607c.045-.19123.09562-.26435.23623-.2756l.30935-.02812 .03937-.16311h-1.54111l-.03937.16311 .33185.02812c.12936.01125.16873.08999.12374.2756l-.45558,1.96295c-.17436.74806-.44996,1.34988-1.23177,1.34988-.62432,0-1.01803-.3431-.77056-1.4005l.44433-1.91233c.045-.19123.09562-.26998.23623-.28122l.30935-.0225 .03937-.16311h-1.54111" fill="#d0d0d0" fill-opacity=".78431" stroke="#fff" stroke-opacity=".78431" stroke-width=".2"/>
 <path transform="scale(.97972,1.0207)" d="m40.48837,25.87109c1.01241,0 1.52424-.50058 1.82234-1.07428 .28685-.5512.33184-1.06865.33184-1.36675 0-1.13615-.71994-1.61986-1.66485-1.61986-1.01803,0-1.59173.53995-1.89546,1.11928-.2981.5737-.3206,1.0799-.3206,1.37238 0,.95054.5962,1.56924 1.72672,1.56924m-.09562-.25873c-.47246,0-.70306-.3206-.70306-.8943 0-.89429.44434-2.64914 1.37238-2.64914 .50058,0 .65244.37684.65244.8718 0,1.09115-.48933,2.67164-1.32176,2.67164" fill="#c7a972" stroke="#fbebb0" stroke-width=".2"/>
 <path transform="scale(.97972,1.0207)" d="m35.31888,21.89457-.03937.16311 .33185.02812c.12936.01125.16873.08999.12374.2756l-.67494,2.95849c-.045.19686-.10124.25873-.23623.26998l-.30935.03375-.03375.16311h1.54111l.03375-.16311-.33185-.02812c-.13499-.01125-.16874-.08437-.12374-.2756l.30935-1.36675h.33747c.18561,0 .34309.01687.42746.07312 .09562.05625.15749.15186.17998.2756 .03375.20248-.01125.63557.03937,1.05178 .03937.28122.20811.43309.56807.43309h.43871l.05062-.16311c-.24748-.0225-.38247-.08437-.44996-.19686-.05624-.09562-.08437-.30372-.07874-.5962 .00562-.44996-.00562-.83243-.51745-.97304v-.01125c.68619-.09562 1.15865-.48933 1.15865-1.04616 0-.39934-.17436-.90555-1.22614-.90555h-1.51861m.63557,1.86171 .33185-1.45112c.03937-.16311.05624-.21373.48371-.21373 .36559,0 .70306.16311.70306.65244 0,.66932-.43309,1.01241-1.15865,1.01241h-.35997" fill="#d0d0d0" fill-opacity=".78431" stroke="#fff" stroke-opacity=".78431" stroke-width=".2"/>
 <path d="m38.581 22.834s-0.62706 0.89927-0.69486 1.6677c-0.10423 1.1813 0.27795 1.3898 0.27795 1.3898" fill="#f2f2f4" fill-rule="evenodd" stroke="#f3f4f6" stroke-width=".1"/>
</svg>
